<svg id="visual" viewBox="0 0 900 600" width="900" height="600" xmlns="http://www.w3.org/2000/svg" xmlns:xlink="http://www.w3.org/1999/xlink" version="1.1"><rect x="0" y="0" width="900" height="600" fill="#001220"></rect><path d="M0 232L21.5 236C43 240 86 248 128.8 253.2C171.7 258.3 214.3 260.7 257.2 257.8C300 255 343 247 385.8 241.3C428.7 235.7 471.3 232.3 514.2 236.3C557 240.3 600 251.7 642.8 255.5C685.7 259.3 728.3 255.7 771.2 252.5C814 249.3 857 246.7 878.5 245.3L900 244L900 0L878.5 0C857 0 814 0 771.2 0C728.3 0 685.7 0 642.8 0C600 0 557 0 514.2 0C471.3 0 428.7 0 385.8 0C343 0 300 0 257.2 0C214.3 0 171.7 0 128.8 0C86 0 43 0 21.5 0L0 0Z" fill="#fa7268"></path><path d="M0 188L21.5 191.5C43 195 86 202 128.8 207.3C171.7 212.7 214.3 216.3 257.2 218.7C300 221 343 222 385.8 218.7C428.7 215.3 471.3 207.7 514.2 206.5C557 205.3 600 210.7 642.8 210.8C685.7 211 728.3 206 771.2 203.5C814 201 857 201 878.5 201L900 201L900 0L878.5 0C857 0 814 0 771.2 0C728.3 0 685.7 0 642.8 0C600 0 557 0 514.2 0C471.3 0 428.7 0 385.8 0C343 0 300 0 257.2 0C214.3 0 171.7 0 128.8 0C86 0 43 0 21.5 0L0 0Z" fill="#f16367"></path><path d="M0 160L21.5 160.3C43 160.7 86 161.3 128.8 164.7C171.7 168 214.3 174 257.2 173.8C300 173.7 343 167.3 385.8 164.7C428.7 162 471.3 163 514.2 161.7C557 160.3 600 156.7 642.8 157.2C685.7 157.7 728.3 162.3 771.2 165.3C814 168.3 857 169.7 878.5 170.3L900 171L900 0L878.5 0C857 0 814 0 771.2 0C728.3 0 685.7 0 642.8 0C600 0 557 0 514.2 0C471.3 0 428.7 0 385.8 0C343 0 300 0 257.2 0C214.3 0 171.7 0 128.8 0C86 0 43 0 21.5 0L0 0Z" fill="#e85467"></path><path d="M0 141L21.5 139.7C43 138.3 86 135.7 128.8 133.8C171.7 132 214.3 131 257.2 132.3C300 133.7 343 137.3 385.8 135.5C428.7 133.7 471.3 126.3 514.2 123.8C557 121.3 600 123.7 642.8 125C685.7 126.3 728.3 126.7 771.2 125.7C814 124.7 857 122.3 878.5 121.2L900 120L900 0L878.5 0C857 0 814 0 771.2 0C728.3 0 685.7 0 642.8 0C600 0 557 0 514.2 0C471.3 0 428.7 0 385.8 0C343 0 300 0 257.2 0C214.3 0 171.7 0 128.8 0C86 0 43 0 21.5 0L0 0Z" fill="#de4467"></path><path d="M0 72L21.5 71.8C43 71.7 86 71.3 128.8 71.5C171.7 71.7 214.3 72.3 257.2 74.3C300 76.3 343 79.7 385.8 81C428.7 82.3 471.3 81.7 514.2 81.5C557 81.3 600 81.7 642.8 82.8C685.7 84 728.3 86 771.2 85.8C814 85.7 857 83.3 878.5 82.2L900 81L900 0L878.5 0C857 0 814 0 771.2 0C728.3 0 685.7 0 642.8 0C600 0 557 0 514.2 0C471.3 0 428.7 0 385.8 0C343 0 300 0 257.2 0C214.3 0 171.7 0 128.8 0C86 0 43 0 21.5 0L0 0Z" fill="#d23467"></path><path d="M0 57L21.5 53.8C43 50.7 86 44.3 128.8 43.5C171.7 42.7 214.3 47.3 257.2 46.2C300 45 343 38 385.8 36.5C428.7 35 471.3 39 514.2 42.5C557 46 600 49 642.8 48.5C685.7 48 728.3 44 771.2 42.2C814 40.3 857 40.7 878.5 40.8L900 41L900 0L878.5 0C857 0 814 0 771.2 0C728.3 0 685.7 0 642.8 0C600 0 557 0 514.2 0C471.3 0 428.7 0 385.8 0C343 0 300 0 257.2 0C214.3 0 171.7 0 128.8 0C86 0 43 0 21.5 0L0 0Z" fill="#c62368"></path></svg>